<svg width="85" height="20" viewBox="0 0 85 20" fill="none" xmlns="http://www.w3.org/2000/svg">
<path d="M6.63 19.3C5.31 19.3 4.31 18.92 3.63 18.16C2.95 17.38 2.61 16.45 2.61 15.37V7.06H0.48L0.81 4H2.61V0.7L6.33 0.309999V4H9.63V7.06H6.33V13.84C6.33 14.64 6.37 15.2 6.45 15.52C6.55 15.82 6.74 16.02 7.02 16.12C7.32 16.2 7.85 16.24 8.61 16.24H9.63L9.3 19.3H6.63ZM22.2825 19.3C20.5425 19.3 19.0525 18.95 17.8125 18.25C16.5925 17.53 15.6725 16.58 15.0525 15.4C14.4525 14.2 14.1525 12.87 14.1525 11.41C14.1525 10.01 14.4425 8.73 15.0225 7.57C15.6025 6.41 16.4425 5.49 17.5425 4.81C18.6425 4.11 19.9525 3.76 21.4725 3.76C22.8725 3.76 24.0525 4.05 25.0125 4.63C25.9925 5.21 26.7225 5.99 27.2025 6.97C27.7025 7.95 27.9525 9.05 27.9525 10.27C27.9525 10.87 27.8725 11.55 27.7125 12.31H18.0225C18.2225 13.63 18.7425 14.62 19.5825 15.28C20.4225 15.92 21.4325 16.24 22.6125 16.24C24.2325 16.24 25.7325 15.83 27.1125 15.01L27.2925 18.16C26.6525 18.5 25.9025 18.78 25.0425 19C24.2025 19.2 23.2825 19.3 22.2825 19.3ZM24.1725 9.79C24.1725 9.01 23.9525 8.32 23.5125 7.72C23.0725 7.12 22.3925 6.82 21.4725 6.82C20.5525 6.82 19.8125 7.09 19.2525 7.63C18.6925 8.17 18.3125 8.89 18.1125 9.79H24.1725ZM36.732 19.3C35.492 19.3 34.452 18.9 33.612 18.1C32.792 17.28 32.382 16.18 32.382 14.8C32.382 13.5 32.852 12.46 33.792 11.68C34.732 10.88 35.842 10.32 37.122 10C38.402 9.66 39.632 9.47 40.812 9.43C40.772 8.55 40.542 7.92 40.122 7.54C39.722 7.16 39.052 6.97 38.112 6.97C37.452 6.97 36.802 7.06 36.162 7.24C35.542 7.42 34.822 7.71 34.002 8.11L33.672 5.08C35.492 4.2 37.312 3.76 39.132 3.76C40.892 3.76 42.232 4.24 43.152 5.2C44.092 6.16 44.562 7.69 44.562 9.79V13.84C44.562 14.6 44.592 15.15 44.652 15.49C44.732 15.81 44.852 16.02 45.012 16.12C45.192 16.2 45.482 16.24 45.882 16.24H46.362L46.032 19.3H44.682C43.862 19.3 43.172 19.15 42.612 18.85C42.052 18.53 41.622 18.1 41.322 17.56C40.842 18.1 40.182 18.53 39.342 18.85C38.522 19.15 37.652 19.3 36.732 19.3ZM38.292 16.45C38.672 16.45 39.102 16.36 39.582 16.18C40.062 15.98 40.482 15.71 40.842 15.37V11.95C39.642 12.01 38.582 12.27 37.662 12.73C36.742 13.19 36.282 13.83 36.282 14.65C36.282 15.27 36.442 15.73 36.762 16.03C37.082 16.31 37.592 16.45 38.292 16.45ZM68.2634 3.76C70.2634 3.76 71.7434 4.37 72.7034 5.59C73.6834 6.79 74.1734 8.48 74.1734 10.66V19H70.4534V10.93C70.4534 9.51 70.2334 8.47 69.7934 7.81C69.3534 7.15 68.6334 6.82 67.6334 6.82C66.6534 6.82 65.9134 7.16 65.4134 7.84C64.9134 8.5 64.6634 9.44 64.6634 10.66V19H60.9434V10.93C60.9434 9.51 60.7134 8.47 60.2534 7.81C59.7934 7.15 59.0634 6.82 58.0634 6.82C56.8834 6.82 55.9134 7.25 55.1534 8.11V19H51.4334V4H54.6134L54.7334 5.2C56.0934 4.24 57.5634 3.76 59.1434 3.76C61.0634 3.76 62.4934 4.45 63.4334 5.83C63.9534 5.17 64.6334 4.66 65.4734 4.3C66.3134 3.94 67.2434 3.76 68.2634 3.76ZM80.1476 14.92H84.0476V19H80.1476V14.92Z" fill="#0A1349"/>
</svg>
