<svg width="38" height="38" viewBox="0 0 38 38" fill="none" xmlns="http://www.w3.org/2000/svg">
<path d="M8.24733 20.5833H25.9332L18.2065 28.3099C17.589 28.9274 17.589 29.9408 18.2065 30.5583C18.824 31.1758 19.8215 31.1758 20.439 30.5583L30.8732 20.1241C31.4907 19.5066 31.4907 18.5091 30.8732 17.8916L20.4548 7.44162C20.159 7.14513 19.7574 6.97852 19.3386 6.97852C18.9198 6.97852 18.5182 7.14513 18.2223 7.44162C17.6048 8.05912 17.6048 9.05662 18.2223 9.67412L25.9332 17.4166H8.24733C7.3765 17.4166 6.664 18.1291 6.664 19C6.664 19.8708 7.3765 20.5833 8.24733 20.5833Z" fill="white" fill-opacity="0.6"/>
</svg>
