<svg width="120" height="24" viewBox="0 0 120 24" fill="none" xmlns="http://www.w3.org/2000/svg">
<g clip-path="url(#clip0)">
<path d="M12 17.0539L16.15 19.4177C16.91 19.8509 17.84 19.2105 17.64 18.4006L16.54 13.9554L20.21 10.9606C20.88 10.4144 20.52 9.37841 19.64 9.31249L14.81 8.92636L12.92 4.72606C12.58 3.96322 11.42 3.96322 11.08 4.72606L9.19001 8.91694L4.36001 9.30307C3.48001 9.36899 3.12001 10.4049 3.79001 10.9512L7.46001 13.946L6.36001 18.3912C6.16001 19.2011 7.09001 19.8415 7.85001 19.4083L12 17.0539Z" fill="#FFBB00"/>
<path d="M84 17.0539L88.15 19.4177C88.91 19.8509 89.84 19.2105 89.64 18.4006L88.54 13.9554L92.21 10.9606C92.88 10.4144 92.52 9.37841 91.64 9.31249L86.81 8.92636L84.92 4.72606C84.58 3.96322 83.42 3.96322 83.08 4.72606L81.19 8.91694L76.36 9.30307C75.48 9.36899 75.12 10.4049 75.79 10.9512L79.46 13.946L78.36 18.3912C78.16 19.2011 79.09 19.8415 79.85 19.4083L84 17.0539Z" fill="#FFBB00"/>
<path d="M60 17.0539L64.15 19.4177C64.91 19.8509 65.84 19.2105 65.64 18.4006L64.54 13.9554L68.21 10.9606C68.88 10.4144 68.52 9.37841 67.64 9.31249L62.81 8.92636L60.92 4.72606C60.58 3.96322 59.42 3.96322 59.08 4.72606L57.19 8.91694L52.36 9.30307C51.48 9.36899 51.12 10.4049 51.79 10.9512L55.46 13.946L54.36 18.3912C54.16 19.2011 55.09 19.8415 55.85 19.4083L60 17.0539Z" fill="#FFBB00"/>
<path d="M36 17.0539L40.15 19.4177C40.91 19.8509 41.84 19.2105 41.64 18.4006L40.54 13.9554L44.21 10.9606C44.88 10.4144 44.52 9.37841 43.64 9.31249L38.81 8.92636L36.92 4.72606C36.58 3.96322 35.42 3.96322 35.08 4.72606L33.19 8.91694L28.36 9.30307C27.48 9.36899 27.12 10.4049 27.79 10.9512L31.46 13.946L30.36 18.3912C30.16 19.2011 31.09 19.8415 31.85 19.4083L36 17.0539Z" fill="#FFBB00"/>
<path d="M108 17.0539L112.15 19.4177C112.91 19.8509 113.84 19.2105 113.64 18.4006L112.54 13.9554L116.21 10.9606C116.88 10.4144 116.52 9.37841 115.64 9.31249L110.81 8.92636L108.92 4.72606C108.58 3.96322 107.42 3.96322 107.08 4.72606L105.19 8.91694L100.36 9.30307C99.48 9.36899 99.12 10.4049 99.79 10.9512L103.46 13.946L102.36 18.3912C102.16 19.2011 103.09 19.8415 103.85 19.4083L108 17.0539Z" fill="#FFBB00"/>
</g>
<defs>
<clipPath id="clip0">
<rect width="120" height="22.6025" fill="white" transform="translate(0 0.554443)"/>
</clipPath>
</defs>
</svg>
